<?xml version="1.0" encoding="UTF-8"?>
<svg width="40px" height="40px" viewBox="0 0 40 40" version="1.1" xmlns="http://www.w3.org/2000/svg" xmlns:xlink="http://www.w3.org/1999/xlink">
    <title>编组 18</title>
    <g id="页面-1" stroke="none" stroke-width="1" fill="none" fill-rule="evenodd">
        <g id="00跨产品切换浮窗" transform="translate(-24.000000, -136.000000)">
            <g id="编组-18" transform="translate(24.000000, 136.000000)">
                <rect id="矩形" fill="#D8D8D8" opacity="0" x="0" y="0" width="40" height="40"></rect>
                <path d="M23.8160237,17.0104109 C24.2257306,17.0104109 24.5578635,17.3582628 24.5578635,17.7873599 C24.5578635,18.216457 24.2257306,18.5643089 23.8160237,18.5643089 L20.7418398,18.563399 L20.7418398,23.3944681 L26.6646884,23.396022 C27.0251233,23.396022 27.3255206,23.6652386 27.3925602,24.0221483 L27.4362018,24.0237968 L27.4362362,26.9324942 C28.2672043,27.2497215 28.8605341,28.0846128 28.8605341,29.0646422 C28.8605341,30.3176056 27.8907058,31.3333333 26.694362,31.3333333 C25.4980182,31.3333333 24.5281899,30.3176056 24.5281899,29.0646422 C24.5281899,28.0851885 25.1208227,27.2507027 25.9510233,26.9330537 L25.9510386,24.9483662 L20.7418398,24.9483662 L20.7433387,26.9330537 C21.5110668,27.2267997 22.0756358,27.9625254 22.156256,28.8461521 L22.1661721,29.0646422 C22.1661721,30.3176056 21.1963438,31.3333333 20,31.3333333 C18.8036562,31.3333333 17.8338279,30.3176056 17.8338279,29.0646422 C17.8338279,28.0846128 18.4271577,27.2497215 19.2581258,26.9324942 L19.2581602,24.9483662 L14.0474777,24.9483662 L14.0488693,26.8843465 C14.8885388,27.1376881 15.5187946,27.9086828 15.6043272,28.8461521 L15.6142433,29.0646422 C15.6142433,30.3176056 14.644415,31.3333333 13.4480712,31.3333333 C12.2517274,31.3333333 11.2818991,30.3176056 11.2818991,29.0646422 C11.2818991,28.141533 11.808309,27.3471924 12.5638832,26.9929337 L12.5637982,24.1729711 L12.5934718,24.1729711 L12.5934718,24.1729711 C12.5934718,23.7438739 12.9256048,23.396022 13.3353116,23.396022 L19.2581602,23.3944681 L19.2581602,18.563399 L16.1839763,18.5643089 C15.7742695,18.5643089 15.4421365,18.216457 15.4421365,17.7873599 C15.4421365,17.3582628 15.7742695,17.0104109 16.1839763,17.0104109 L23.8160237,17.0104109 Z M13.4480712,28.349849 C13.071141,28.349849 12.7655786,28.6698728 12.7655786,29.0646422 C12.7655786,29.4594115 13.071141,29.7794353 13.4480712,29.7794353 C13.8250015,29.7794353 14.1305638,29.4594115 14.1305638,29.0646422 C14.1305638,28.6698728 13.8250015,28.349849 13.4480712,28.349849 Z M20,28.349849 C19.6230698,28.349849 19.3175074,28.6698728 19.3175074,29.0646422 C19.3175074,29.4594115 19.6230698,29.7794353 20,29.7794353 C20.3769302,29.7794353 20.6824926,29.4594115 20.6824926,29.0646422 C20.6824926,28.6698728 20.3769302,28.349849 20,28.349849 Z M26.694362,28.349849 C26.3174318,28.349849 26.0118694,28.6698728 26.0118694,29.0646422 C26.0118694,29.4594115 26.3174318,29.7794353 26.694362,29.7794353 C27.0712923,29.7794353 27.3768546,29.4594115 27.3768546,29.0646422 C27.3768546,28.6698728 27.0712923,28.349849 26.694362,28.349849 Z M19.8506748,8 C22.3314947,8 24.5794798,9.26007452 25.7922779,11.2462006 L25.9243323,11.4776239 L26.0961341,11.5156629 C28.2603978,12.0500568 29.867078,13.8669199 29.9921496,16.0528919 L30,16.3279948 C30,19.0945209 27.644861,21.2999693 24.7784053,21.2999693 C24.4253267,21.2999693 24.0763666,21.2665587 23.7352963,21.200753 C23.3323695,21.1230127 23.0659059,20.7178963 23.1401331,20.2959001 C23.2143604,19.873904 23.60117,19.5948294 24.0040969,19.6725696 C24.2565355,19.7212748 24.5155239,19.7460712 24.7784053,19.7460712 C26.8601503,19.7460712 28.5163205,18.1951659 28.5163205,16.3279948 C28.5163205,14.6514755 27.173465,13.2045066 25.3478982,12.9495782 C25.1038056,12.9154923 24.8917723,12.7567701 24.7819547,12.5259288 C23.933753,10.7429727 22.0160008,9.55389806 19.8506748,9.55389806 C17.4539257,9.55389806 15.3795903,11.0100317 14.701127,13.070887 C14.6175305,13.3248142 14.4146356,13.5155094 14.1645824,13.5751704 C12.5858251,13.9518505 11.4836795,15.2621413 11.4836795,16.7474974 C11.4836795,18.45927 12.878752,19.9339371 14.8565776,19.9339371 C15.2662844,19.9339371 15.5984174,20.2817891 15.5984174,20.7108862 C15.5984174,21.1399833 15.2662844,21.4878352 14.8565776,21.4878352 C12.0562525,21.4878352 10,19.314265 10,16.7474974 C10,14.6905216 11.3515231,12.9123424 13.2918282,12.2210649 L13.4436202,12.1706624 L13.5247692,11.9775252 C14.5411157,9.68915272 16.8646893,8.12876818 19.5174376,8.00759881 L19.8506748,8 Z" id="Combined-Shape" fill="#1D78FF"></path>
            </g>
        </g>
    </g>
</svg>