<?xml version="1.0" encoding="UTF-8"?>
<svg width="40px" height="40px" viewBox="0 0 40 40" version="1.1" xmlns="http://www.w3.org/2000/svg" xmlns:xlink="http://www.w3.org/1999/xlink">
    <title>编组 18</title>
    <g id="页面-1" stroke="none" stroke-width="1" fill="none" fill-rule="evenodd">
        <g id="00跨产品切换浮窗" transform="translate(-24.000000, -496.000000)">
            <g id="编组-18" transform="translate(24.000000, 496.000000)">
                <rect id="矩形" fill="#D8D8D8" opacity="0" x="0" y="0" width="40" height="40"></rect>
                <path d="M17.0771051,12.1616138 C17.7842161,12.1616138 18.3928897,12.5823846 18.6656957,13.1864004 L25.2228026,13.1864004 C25.6032746,13.1833604 25.9192411,13.4786459 25.9415591,13.8577659 C25.963877,14.2369172 25.6845733,14.5669587 25.3064242,14.6084529 L25.2235245,14.6134673 L18.6656957,14.6134673 C18.38454,15.2376034 17.7629026,15.6390061 17.0774818,15.6390061 C16.392061,15.6390061 15.7703922,15.2376034 15.4892365,14.6134673 L14.7771033,14.6134673 C14.3967254,14.6164133 14.0807589,14.3212531 14.0584409,13.9421332 C14.036123,13.5628565 14.3154267,13.232815 14.6935758,13.1914148 L14.7771033,13.1871526 L15.4892365,13.1864004 C15.7706433,12.5626718 16.392061,12.1616138 17.0771051,12.1616138 L17.0771051,12.1616138 Z M23.4821614,15.6382853 C24.1892723,15.6382853 24.797067,16.0590248 25.0700299,16.6630719 L25.2235245,16.6630719 C25.6037768,16.660502 25.9194922,16.9557875 25.9415591,17.3348135 C25.9636259,17.7138081 25.6844478,18.0436302 25.3064242,18.0851244 L25.2235245,18.0901388 L25.0707519,18.0901388 C24.7897218,18.7146196 24.1678019,19.1163984 23.4821614,19.1163984 C22.7963638,19.1163984 22.1744753,18.7146196 21.8935394,18.0901388 L14.7771033,18.0901388 C14.3967254,18.0930847 14.0807589,17.7979246 14.0584409,17.4187733 C14.036123,17.039528 14.3154267,16.7094551 14.6935758,16.6680863 L14.7771033,16.6637927 L21.8942928,16.6630719 C22.175574,16.0393432 22.7969916,15.6382853 23.4821614,15.6382853 L23.4821614,15.6382853 Z M17.0771051,19.1149254 C17.7842161,19.1149254 18.3928897,19.5356963 18.6656957,20.1397434 L25.2228026,20.1397434 C25.6032746,20.1366721 25.9192411,20.4319576 25.9415591,20.8110775 C25.963877,21.1902288 25.6845733,21.5202704 25.3064242,21.5617959 L25.2235245,21.5668103 L18.6656957,21.5668103 C18.38454,22.190915 17.7629026,22.5923177 17.0774818,22.5923177 C16.392061,22.5923177 15.7703922,22.190915 15.4892365,21.5668103 L14.7771033,21.5668103 C14.3967254,21.5697249 14.0807589,21.2745648 14.0584409,20.8954448 C14.036123,20.5161681 14.3154267,20.1861266 14.6935758,20.1447578 L14.7771033,20.1404642 L15.4892365,20.1397434 C15.7706433,19.5159834 16.392061,19.1149254 17.0771051,19.1149254 L17.0771051,19.1149254 Z M11.4285983,23.9066546 L28.5714331,23.9066546 L28.5714331,11.4263461 L11.4285983,11.4263461 L11.4285983,23.9066546 Z M28.5714331,10 C29.3604392,10 30,10.6385525 30,11.4263461 L30,23.9066546 C30,24.6943228 29.3604392,25.3330007 28.5714331,25.3330007 L20.7142364,25.3330007 L20.7142364,27.5736853 L24.642819,27.5736853 C25.0207171,27.57403 25.3329169,27.868344 25.3551093,28.2450508 C25.3773016,28.6217262 25.1016392,28.9504201 24.7264406,28.9949856 L24.642819,29 L15.357181,29 C14.9791574,28.9995299 14.6669889,28.7053413 14.6449221,28.3286345 C14.6227298,27.9519591 14.8982353,27.6232652 15.2735594,27.5786997 L15.357181,27.5736853 L19.2856381,27.5736853 L19.2856381,25.3330007 L11.4285983,25.3330007 C10.6809949,25.3332201 10.0595772,24.757849 10.003547,24.0136494 L10,23.9066546 L10,11.4263461 C10,11.0480723 10.1504498,10.6852177 10.4183591,10.4177309 C10.6862684,10.1502126 11.0496958,10 11.4285983,10 L28.5714331,10 Z" id="Fill-1" fill="#1D78FF"></path>
            </g>
        </g>
    </g>
</svg>