<?xml version="1.0" encoding="UTF-8"?>
<svg width="40px" height="40px" viewBox="0 0 40 40" version="1.1" xmlns="http://www.w3.org/2000/svg" xmlns:xlink="http://www.w3.org/1999/xlink">
    <title>编组 18</title>
    <g id="页面-1" stroke="none" stroke-width="1" fill="none" fill-rule="evenodd">
        <g id="00跨产品切换浮窗" transform="translate(-24.000000, -376.000000)">
            <g id="编组-18" transform="translate(24.000000, 376.000000)">
                <rect id="矩形" fill="#D8D8D8" opacity="0" x="0" y="0" width="40" height="40"></rect>
                <g id="编组" transform="translate(9.000000, 8.000000)" fill="#1D78FF">
                    <path d="M17.2326907,4.16277509 C17.8827767,4.16414387 18.4730477,4.54307197 18.7459627,5.13400474 C19.0188777,5.72504275 18.9250226,6.42094292 18.5051966,6.91813475 C18.0855106,7.41532658 17.4160232,7.62364758 16.7889106,7.45219849 L14.721754,9.48039875 L13.914776,19.2279127 L13.8886506,19.3775754 C13.7748339,19.7974801 13.3606111,20.0614071 12.9326953,19.9864354 C12.5049196,19.9114988 12.2045135,19.5224318 12.2398142,19.0886695 L13.0706062,9.02983181 L13.0960311,8.88167763 C13.1348688,8.73724221 13.2117739,8.60469982 13.3201274,8.49836419 L15.6114855,6.24868693 C15.4846761,5.74767109 15.5959013,5.21623855 15.912732,4.80840232 C16.2297028,4.40067134 16.7168383,4.16235465 17.2326907,4.16277509 L17.2326907,4.16277509 Z M3.93501145,4.16277565 C4.45089883,4.16235465 4.93803436,4.40067134 5.25500515,4.80840232 C5.57183586,5.21623855 5.68302603,5.74767109 5.5562167,6.24868693 L7.84760977,8.49836419 C7.95596328,8.60469982 8.03283334,8.73724221 8.0716711,8.88167763 L8.09713102,9.03049838 L8.92792298,19.0895115 C8.96252326,19.5228177 8.66211718,19.9114988 8.23448153,19.9861548 C7.80698596,20.0608458 7.39290325,19.7971994 7.27908654,19.3775754 L7.2529262,19.2279127 L6.4459482,9.48110041 L4.37879157,7.45286506 C3.87579174,7.59045935 3.33749122,7.48535163 2.92298827,7.16851988 C2.50834523,6.85168814 2.26498759,6.35940789 2.26442718,5.83702669 C2.26428718,5.39287988 2.44023031,4.96680065 2.75376908,4.65270536 C3.06716778,4.33846974 3.49235199,4.16196874 3.93571186,4.16196874 L3.93501145,4.16277565 Z M10.5842538,2.20130873e-06 C11.3374753,-0.000556912431 11.9979624,0.503897035 12.1971242,1.23158212 C12.3963209,1.95930228 12.0848133,2.73056006 11.4366534,3.11496105 L11.6324182,19.1478891 C11.6400877,19.5850544 11.3124356,19.9553522 10.8782511,20.0001528 C10.4441717,20.0449534 10.0480195,19.749487 9.96635164,19.3200047 L9.9514329,19.1688685 L9.75349688,3.12839772 C9.09465571,2.75192541 8.77155633,1.97807152 8.96662066,1.24379089 C9.16154491,0.509510265 9.82570921,-0.00122348347 10.5842538,2.20130873e-06 L10.5842538,2.20130873e-06 Z M18.8950801,9.99074659 C19.5344849,9.99225515 20.1169813,10.3591148 20.3954995,10.9356637 C20.6741579,11.5121775 20.5998793,12.1974125 20.2043925,12.7007438 C19.8087656,13.2039698 19.1613061,13.4370943 18.5363999,13.3011489 L17.1923471,15.2956347 L16.3944044,19.3222149 L16.3518544,19.4681589 C16.1926161,19.8742059 15.7500617,20.0910169 15.3323018,19.9678065 C14.9145069,19.8445961 14.6599077,19.4220953 14.7455679,18.9944023 L15.5771653,14.8009337 L15.7041148,14.4941005 L17.2902995,12.136544 C17.1422677,11.6301956 17.2410256,11.0836775 17.5567707,10.6614223 C17.8725157,10.2392022 18.3684064,9.99074659 18.8950801,9.99074659 L18.8950801,9.99074659 Z M2.27346256,9.99074653 C2.79999618,9.99060626 3.29588684,10.2392022 3.61163191,10.6614223 C3.9272369,11.0838179 4.02571462,11.6303359 3.87743771,12.136544 L5.46278194,14.4941005 L5.59057184,14.8009337 L6.42216927,18.9944023 C6.50779445,19.4220953 6.25323025,19.8445961 5.83543536,19.9678065 C5.41764048,20.0910169 4.97508608,19.8742059 4.81588276,19.4681589 L4.77319274,19.3222149 L3.97539012,15.2956347 L2.63133732,13.3011489 C2.00643104,13.4370943 1.35897154,13.2039698 0.963344651,12.7007438 C0.567857842,12.1974125 0.493579305,11.5121775 0.772097554,10.9356637 C1.05075589,10.3591148 1.63325231,9.99225515 2.27265709,9.99074653 L2.27346256,9.99074653 Z M3.80725657,17.4459578 C3.89246151,17.6523492 3.89246151,17.8842107 3.80697641,18.0906021 C3.7214913,18.2969936 3.55759524,18.4607596 3.35156948,18.5461508 C2.22338321,19.011663 1.68098529,19.5130998 1.68098529,19.8311595 C1.68098529,20.2331018 2.49987026,20.8669407 4.0777201,21.3834631 C5.87977135,21.9739749 8.35267581,22.3166976 11.0004027,22.3166976 C13.6473242,22.3166976 16.1202637,21.9739749 17.9229803,21.3834631 C19.5009702,20.8669407 20.3190147,20.2331018 20.3190147,19.8311595 C20.3190147,19.5310622 19.8296729,19.0588141 18.7934505,18.6067035 C18.3701924,18.4196427 18.1774395,17.9251873 18.3621027,17.500371 C18.5466609,17.0755548 19.0392596,16.8799688 19.4643037,17.0626443 C21.049648,17.7542995 22,18.6711154 22,19.8311595 C22,22.3885119 17.0781101,24 11.0004027,24 C4.9218899,24 0,22.3885119 0,19.8311595 C0,18.6291915 1.016821,17.6892211 2.70971326,16.988655 C2.9158791,16.903404 3.14718968,16.903825 3.35307536,16.9896022 C3.55882095,17.0752741 3.72229677,17.239426 3.80725657,17.4459578 L3.80725657,17.4459578 Z" id="Fill-1"></path>
                </g>
            </g>
        </g>
    </g>
</svg>