<?xml version="1.0" encoding="UTF-8"?>
<svg width="40px" height="40px" viewBox="0 0 40 40" version="1.1" xmlns="http://www.w3.org/2000/svg" xmlns:xlink="http://www.w3.org/1999/xlink">
    <title>编组 18</title>
    <defs>
        <polygon id="path-1" points="0 0 22 0 22 22 0 22"></polygon>
    </defs>
    <g id="页面-1" stroke="none" stroke-width="1" fill="none" fill-rule="evenodd">
        <g id="00跨产品切换浮窗" transform="translate(-24.000000, -256.000000)">
            <g id="编组-18" transform="translate(24.000000, 256.000000)">
                <rect id="矩形" fill="#D8D8D8" opacity="0" x="0" y="0" width="40" height="40"></rect>
                <g id="编组" transform="translate(9.000000, 9.000000)">
                    <mask id="mask-2" fill="white">
                        <use xlink:href="#path-1"></use>
                    </mask>
                    <g id="Clip-2"></g>
                    <path d="M10.7663897,4.07896877 L5.77599747,6.97190208 L7.55309273,8.00259817 L12.5620709,5.11993963 L10.7663897,4.07896877 Z M13.747589,6.1380849 L13.6753823,6.1854594 L9.02902436,8.85790783 L10.7663897,9.86499796 L15.7553897,6.97190208 L13.942871,5.92049386 C13.8929091,6.00548833 13.8265307,6.07939515 13.747589,6.1380849 L13.747589,6.1380849 Z M12.4728972,0.0110048396 L12.558412,0.0183857669 C17.9474632,0.7864249 22.000018,5.43657166 22.000018,10.9541237 C22.0018877,12.4921203 21.6827858,14.0134693 21.0633944,15.4201049 C20.8985817,15.7940286 20.4632366,15.962977 20.09087,15.7974752 C19.7185034,15.6319733 19.5502585,15.1946778 19.7150712,14.8207541 C20.2512467,13.6028361 20.5273484,12.2857145 20.5255675,10.9541237 C20.5255675,6.17580241 17.016061,2.14848236 12.3513438,1.483321 C11.9810172,1.43061402 11.708801,1.10764155 11.7181587,0.732189716 C11.7275488,0.356737878 12.0156634,0.0478444458 12.3881595,0.0139311984 L12.4728972,0.0110048396 Z M10.3582112,0.641375047 C10.3841473,0.835945394 10.3320484,1.03282431 10.2134092,1.1889293 C10.0946404,1.34490422 9.91907765,1.44700163 9.7253175,1.47304623 C5.02582451,2.10341643 1.47367391,6.14696152 1.47367391,10.9541237 C1.47367391,12.3465502 1.76988344,13.6961869 2.33426167,14.9332889 C2.44885344,15.1743558 2.42518387,15.4586028 2.27228692,15.6772018 C2.11935758,15.8957683 1.86109706,16.014676 1.59636061,15.9882412 C1.33162415,15.961839 1.1016635,15.7941586 0.994680962,15.5495475 C0.337340605,14.107568 -0.00199868589,12.5399826 4.54747351e-13,10.9541237 C4.54747351e-13,5.40330871 4.10047734,0.734595833 9.53078025,0.00655027116 C9.93374565,-0.0472947313 10.3041047,0.236724651 10.3582112,0.641375047 L10.3582112,0.641375047 Z M16.4929022,8.25345215 L11.503287,11.146418 L11.503287,16.9324472 L16.4936793,14.0401317 L16.4936793,8.25345215 L16.4929022,8.25345215 Z M5.03910018,8.25345215 L5.03910018,14.0401317 L10.029622,16.9332275 L10.029622,11.146418 L5.03910018,8.25345215 Z M10.029622,2.79738617 C10.4855929,2.53310346 11.047316,2.53310346 11.503287,2.79738617 L17.2305766,6.11812063 C17.686418,6.38243586 17.9673443,6.8709427 17.9673443,7.39957316 L17.9673443,14.0401317 C17.9673443,14.5688922 17.686418,15.0573665 17.2305766,15.3216817 L11.503287,18.6422861 C11.047316,18.9067314 10.4855929,18.9067314 10.029622,18.6422861 L4.30310953,15.3216817 C3.84710617,15.0573665 3.56621224,14.5688922 3.56621224,14.0401317 L3.56621224,7.39957316 C3.56621224,6.8709427 3.84710617,6.38243586 4.30310953,6.11812063 L10.029622,2.79738617 Z M3.39013141,16.7090359 C3.69738242,17.1181409 4.03711026,17.5022418 4.40542939,17.8573391 C6.17708486,19.5692265 8.54128889,20.5239674 11.0000093,20.5201631 C13.4683141,20.5201631 15.7877694,19.5731609 17.545113,17.9039658 C17.8943605,17.5732222 18.2178985,17.2158163 18.5133633,16.8355522 C18.7675763,16.5271465 19.2198884,16.477756 19.5341982,16.7240254 C19.8485079,16.9704248 19.9106122,17.4229699 19.674467,17.7455847 C19.3337354,18.1842785 18.9605917,18.5965699 18.5582739,18.9790125 C16.517964,20.9221473 13.8119599,22.0037945 11.0000093,22.0000002 C8.16108642,22.0036645 5.43157457,20.9013376 3.38569539,18.9250049 C2.96074417,18.5155423 2.568885,18.0726541 2.21410059,17.6005349 C2.0511983,17.3899346 2.01373498,17.1074759 2.11618437,16.8613367 C2.21866613,16.6151648 2.44506501,16.4434526 2.70889483,16.4119455 C2.97275704,16.3804709 3.23292795,16.4938835 3.39013141,16.7090359 L3.39013141,16.7090359 Z" id="Fill-1" fill="#1D78FF" mask="url(#mask-2)"></path>
                </g>
            </g>
        </g>
    </g>
</svg>