<?xml version="1.0" encoding="UTF-8"?>
<svg width="40px" height="40px" viewBox="0 0 40 40" version="1.1" xmlns="http://www.w3.org/2000/svg" xmlns:xlink="http://www.w3.org/1999/xlink">
    <title>编组 18</title>
    <g id="v1.0" stroke="none" stroke-width="1" fill="none" fill-rule="evenodd">
        <g id="00跨产品切换浮窗" transform="translate(-144.000000, -256.000000)">
            <g id="编组-24备份" transform="translate(0.000000, 64.000000)">
                <g id="编组-21" transform="translate(0.000000, 136.000000)">
                    <g id="编组-18" transform="translate(144.000000, 56.000000)">
                        <rect id="矩形" fill="#D8D8D8" opacity="0" x="0" y="0" width="40" height="40"></rect>
                        <g id="编组" transform="translate(8.999991, 9.000000)" fill="#1D78FF">
                            <path d="M3.39014019,16.7090359 C3.6973912,17.1181409 4.03711904,17.5022418 4.40543817,17.8573391 C6.17709363,19.5692265 8.54129767,20.5239674 11.0000181,20.5201631 C13.4683228,20.5201631 15.7877781,19.5731609 17.5451218,17.9039658 C17.8943693,17.5732222 18.2179072,17.2158163 18.513372,16.8355522 C18.7675851,16.5271465 19.2198972,16.477756 19.5342069,16.7240254 C19.8485167,16.9704248 19.910621,17.4229699 19.6744758,17.7455847 C19.3337442,18.1842785 18.9606005,18.5965699 18.5582827,18.9790125 C16.5179728,20.9221473 13.8119686,22.0037945 11.0000181,22.0000002 C8.1610952,22.0036645 5.43158335,20.9013376 3.38570417,18.9250049 C2.96075295,18.5155423 2.56889378,18.0726541 2.21410937,17.6005349 C2.05120708,17.3899346 2.01374376,17.1074759 2.11619314,16.8613367 C2.2186749,16.6151648 2.44507379,16.4434526 2.70890361,16.4119455 C2.97276581,16.3804709 3.23293673,16.4938835 3.39014019,16.7090359 Z M13.502026,14.25 C14.1630299,14.25 14.5550209,14.4094403 15.0633826,14.7927562 L15.2197676,14.9145317 C15.5674777,15.1929228 15.6862928,15.25 16.0000088,15.25 C16.4142223,15.25 16.7500088,15.5857864 16.7500088,16 C16.7500088,16.4142136 16.4142223,16.75 16.0000088,16.75 C15.3390048,16.75 14.9470139,16.5905597 14.4386521,16.2072438 L14.2822671,16.0854683 C13.934557,15.8070772 13.815742,15.75 13.502026,15.75 C13.2275265,15.75 13.1022506,15.7936982 12.8422888,15.9911214 L12.7218029,16.0854638 C12.1327727,16.5570752 11.7311746,16.75 11.0040679,16.75 C10.3430639,16.75 9.95107297,16.5905597 9.44271122,16.2072438 L9.28632619,16.0854683 C8.93861613,15.8070772 8.81980108,15.75 8.50608506,15.75 C8.27131994,15.75 8.1453974,15.782165 7.95089336,15.9149366 L7.72695755,16.0837784 C7.13427768,16.5567733 6.72969891,16.75 6.00000878,16.75 C5.58579522,16.75 5.25000878,16.4142136 5.25000878,16 C5.25000878,15.6203042 5.53216266,15.306509 5.89823822,15.2568466 L6.00000878,15.25 C6.27845717,15.25 6.4062076,15.2056098 6.66734801,15.0081222 L6.79130164,14.9113672 C7.37892807,14.4424054 7.78109313,14.25 8.50608506,14.25 C9.16708902,14.25 9.55907997,14.4094403 10.0674417,14.7927562 L10.2238268,14.9145317 C10.5715368,15.1929228 10.6903519,15.25 11.0040679,15.25 C11.2785673,15.25 11.4038432,15.2063018 11.663805,15.0088786 L11.784291,14.9145362 C12.3733212,14.4429248 12.7749192,14.25 13.502026,14.25 Z M10.35822,0.641375047 C10.3841561,0.835945394 10.3320572,1.03282431 10.2134179,1.1889293 C10.0946492,1.34490422 9.91908643,1.44700163 9.72532628,1.47304623 C5.29184232,2.0677351 1.87948902,5.70013747 1.5073897,10.1456335 L1.50000878,10.25 L1.50000878,10.25 C2.25885628,10.25 2.70772595,10.3975726 3.31241988,10.7680193 L3.50281989,10.8884148 C3.98384451,11.2006593 4.18772967,11.2799988 4.67351853,11.2799988 C5.11109383,11.2799988 5.32279275,11.2166476 5.70407059,10.982104 L5.85577117,10.8859149 C6.56161429,10.4277354 7.01835536,10.25 7.84702828,10.25 C8.60253699,10.25 9.04814704,10.3972788 9.65167582,10.7683923 L9.83793984,10.8865179 C10.3203995,11.2007064 10.5233307,11.2799988 11.0102891,11.2799988 C11.4431391,11.2799988 11.6515692,11.2173493 12.031381,10.982764 L12.182617,10.8865216 C12.8863761,10.4282089 13.3424568,10.25 14.1735185,10.25 C14.9290272,10.25 15.3746373,10.3972788 15.9781661,10.7683923 L16.1644301,10.8865179 C16.6468897,11.2007064 16.8498209,11.2799988 17.3367793,11.2799988 C17.7696294,11.2799988 17.9780595,11.2173493 18.3578712,10.982764 L18.5091072,10.8865216 C19.2122794,10.4285911 19.6681862,10.2502975 20.4979302,10.2500004 C20.1750789,5.78509147 16.7850187,2.11553582 12.3513526,1.483321 C11.9810259,1.43061402 11.7088098,1.10764155 11.7181675,0.732189716 C11.7275576,0.356737878 12.0156722,0.0478444458 12.3881683,0.0139311984 L12.472906,0.0110048396 L12.5584208,0.0183857669 C17.947472,0.7864249 22.0000267,5.43657166 22.0000267,10.9541237 C22.0018965,12.4921203 21.6827945,14.0134693 21.0634032,15.4201049 C20.8985905,15.7940286 20.4632454,15.962977 20.0908788,15.7974752 C19.7185122,15.6319733 19.5502673,15.1946778 19.71508,14.8207541 C20.1440204,13.8464197 20.4065136,12.808595 20.4934414,11.750664 C20.0671587,11.75 19.8587286,11.8126495 19.4789169,12.0472347 L19.3276809,12.1434771 C18.6239218,12.6017899 18.167841,12.7799988 17.3367793,12.7799988 C16.5812706,12.7799988 16.1356606,12.63272 15.5321318,12.2616065 L15.3458678,12.1434808 C14.8634081,11.8292924 14.6604769,11.75 14.1735185,11.75 C13.7406685,11.75 13.5322384,11.8126495 13.1524266,12.0472347 L13.0011907,12.1434771 C12.2974315,12.6017899 11.8413508,12.7799988 11.0102891,12.7799988 C10.2547804,12.7799988 9.80917032,12.63272 9.20564154,12.2616065 L9.01937752,12.1434808 C8.53691789,11.8292924 8.33398669,11.75 7.84702828,11.75 C7.41521597,11.75 7.20614237,11.812688 6.82717362,12.0459179 L6.67247834,12.1440839 C5.96790986,12.6014359 5.50825078,12.7799988 4.67351853,12.7799988 C3.92017951,12.7799988 3.47422219,12.63311 2.87194813,12.2640442 L2.68611272,12.1465839 C2.20078851,11.8315485 1.99407325,11.7506986 1.5063859,11.7500045 C1.59733185,12.8607346 1.8782682,13.9337442 2.33427045,14.9332889 C2.44886222,15.1743558 2.42519265,15.4586028 2.27229569,15.6772018 C2.11936635,15.8957683 1.86110584,16.014676 1.59636939,15.9882412 C1.33163293,15.961839 1.10167228,15.7941586 0.99468974,15.5495475 C0.337349383,14.107568 -0.00198990791,12.5399826 8.77798283e-06,10.9541237 C8.77798283e-06,5.40330871 4.10048612,0.734595833 9.53078903,0.00655027116 C9.93375443,-0.0472947313 10.3041135,0.236724651 10.35822,0.641375047 Z" id="形状结合"></path>
                        </g>
                    </g>
                </g>
            </g>
        </g>
    </g>
</svg>