<?xml version="1.0" encoding="UTF-8"?>
<svg width="40px" height="40px" viewBox="0 0 40 40" version="1.1" xmlns="http://www.w3.org/2000/svg" xmlns:xlink="http://www.w3.org/1999/xlink">
    <title>编组 18</title>
    <g id="页面-1" stroke="none" stroke-width="1" fill="none" fill-rule="evenodd">
        <g id="00跨产品切换浮窗" transform="translate(-144.000000, -496.000000)">
            <g id="编组-18" transform="translate(144.000000, 496.000000)">
                <rect id="矩形" fill="#D8D8D8" opacity="0" x="0" y="0" width="40" height="40"></rect>
                <g id="编组" transform="translate(9.000000, 10.000000)" fill="#1D78FF">
                    <path d="M10.905056,4.09930974 C11.3032458,4.09984302 11.6321766,4.41281068 11.6554614,4.81330263 C11.6788454,5.21392789 11.3885132,5.56349177 10.9930355,5.61088688 L10.905056,5.61621966 L4.60542788,5.61621966 C4.20723807,5.6158197 3.87817498,5.30285204 3.85492327,4.90222677 C3.83153925,4.5016015 4.12197074,4.15203762 4.51731611,4.10464252 L4.60542788,4.09930974 L10.905056,4.09930974 Z M8.5635782,7.24535131 C8.96176801,7.24585126 9.2906988,7.55871893 9.31408282,7.9593442 C9.33736761,8.35993614 9.04703534,8.70950002 8.65155767,8.75689512 L8.5635782,8.76226123 L4.60466716,8.76226123 C4.20660964,8.76146132 3.87804268,8.44836034 3.85492327,8.04786839 C3.83180385,7.64737644 4.12210304,7.2980792 4.51731611,7.2506841 L4.60542788,7.24535131 L8.5635782,7.24535131 Z M6.19418507,10.3913596 C6.59485551,10.3886265 6.92752377,10.7026607 6.95077549,11.1057524 C6.97402721,11.5088441 6.67985824,11.8595745 6.28153612,11.9037033 L6.19418507,11.9082695 L4.60542788,11.9082695 C4.20723807,11.9078695 3.87817498,11.5949019 3.85492327,11.1942766 C3.83153925,10.7936847 4.12197074,10.4440874 4.51731611,10.3967257 L4.60542788,10.3913596 L6.19418507,10.3913596 Z M15.7903314,11.0299936 C15.4027256,11.0195613 15.0400914,11.2220071 14.8431629,11.5587056 C14.6463998,11.8953708 14.6463998,12.3131943 14.8431629,12.6498595 C15.0400914,12.9865581 15.4027256,13.1890038 15.7903314,13.1787049 C16.3681184,13.1632065 16.8285885,12.6867224 16.8285885,12.1043492 C16.8285885,11.5218427 16.3681184,11.0454586 15.7903314,11.0299936 L15.7903314,11.0299936 Z M15.7903314,9.51308365 C16.7195402,9.49705197 17.5850466,9.98736797 18.0541492,10.7957511 C18.5234171,11.6040009 18.5234171,12.6045642 18.0541492,13.4129473 C17.5850466,14.2211971 16.7195402,14.7115131 15.7903314,14.6954815 C14.3873564,14.671384 13.2625422,13.5184031 13.2625422,12.1043492 C13.2625422,10.6902953 14.3873564,9.53728115 15.7903314,9.51308365 L15.7903314,9.51308365 Z M17.6117712,0 C18.9703264,0 20.1533858,0.826747903 20.2332288,1.99629372 L20.2377601,2.12218071 L20.2377601,4.85783136 C20.2372309,5.25908989 19.926789,5.59055564 19.5292276,5.61411987 C19.1316993,5.63758412 18.7847757,5.34501435 18.7377431,4.94648886 L18.7324511,4.85783136 L18.7324511,2.12218071 C18.7324511,1.8680403 18.3291016,1.55777236 17.7337517,1.5206762 L17.6117712,1.51690992 L2.6259889,1.51690992 C2.00583282,1.51690992 1.56319022,1.81034626 1.51060099,2.07048605 L1.50530899,2.12218071 L1.50530899,13.5518663 C1.50530899,13.8058734 1.9086585,14.1153414 2.50400834,14.1532375 L2.6259889,14.1570038 L8.61319068,14.1570038 C9.01409265,14.1538708 9.34705858,14.4677717 9.37054183,14.8709967 C9.39395892,15.2743217 9.09975688,15.625352 8.70130246,15.6693475 L8.61319068,15.6739137 L2.6259889,15.6739137 C1.26667293,15.6739137 0.0842420019,14.8471658 0.00453127376,13.6777533 L0,13.5510664 L0,2.12218071 C0,0.92983725 1.13642361,0.0614603158 2.48075662,0.00299969003 L2.6259889,0 L17.6117712,0 Z M17.7434427,7.65337582 L17.3678431,8.08119828 C16.9013204,8.58177988 16.4436948,8.84868564 15.7903314,8.84868564 C15.1219851,8.84868564 14.6554623,8.57801361 14.1134624,8.05243458 L13.8425452,7.78696201 L13.7703094,7.72173542 L13.6920209,7.76416437 C13.3728803,7.9477454 13.0748416,8.1684226 12.806868,8.4209965 L12.6541608,8.57034773 L12.691767,8.638674 L12.9176031,9.0255007 C13.3420214,9.76265786 13.4413786,10.1911469 13.0004229,10.745623 C12.6947107,11.1293166 12.2679772,11.2916665 11.6177229,11.409221 L11.5349031,11.4243528 L11.1262616,11.4881462 L11.1126677,11.5942353 C11.1037706,11.6787265 11.0969241,11.7634844 11.0923928,11.8483757 L11.0856786,12.1047492 C11.0856786,12.2564002 11.0931866,12.406518 11.1067473,12.5552026 L11.1203081,12.6727905 L11.3942021,12.7455496 L11.8051919,12.8617043 C12.4546855,13.0633501 12.8550583,13.296926 13.0876085,13.7717436 C13.3420214,14.2920232 13.2231498,14.7335109 12.8926645,15.306085 L12.648075,15.7209088 L12.8332288,15.8984905 C13.0703103,16.1138349 13.3292213,16.3041819 13.6040414,16.4665318 L13.8124139,16.5817532 L14.1563607,16.1509311 C14.6214612,15.6048875 15.0994941,15.3090847 15.789703,15.3090847 C16.5347833,15.3090847 17.0321981,15.6542491 17.5312997,16.2845173 L17.7833642,16.6090837 L17.9986163,16.4915292 C18.3523533,16.2845173 18.6783404,16.0319434 18.9687719,15.7383404 L18.6654081,15.2491909 C18.3305238,14.680383 18.2289836,14.2541271 18.5148838,13.7376471 C18.7881494,13.2453646 19.2427982,12.9973569 19.914882,12.8077765 L19.9969411,12.7850122 L20.4597263,12.6682243 L20.4732871,12.5605354 C20.4801336,12.4846433 20.4852933,12.4088844 20.4884023,12.3329589 L20.4943558,12.1047492 C20.4943558,11.9590642 20.4876416,11.8142792 20.4748416,11.6709273 L20.4634638,11.5670381 L19.871223,11.4160203 C19.2623124,11.2476711 18.9130736,11.0664231 18.6744375,10.6552656 C18.3621766,10.1213541 18.4660651,9.70119754 18.8174869,8.98983772 L18.9612639,8.69546813 L19.0041621,8.59924474 L18.9642406,8.55524929 C18.6179785,8.20005266 18.2183665,7.9019168 17.7803875,7.67160727 L17.7434427,7.65337582 Z M16.7575103,6.49749526 C17.1639689,6.09936973 17.6426632,5.93402015 18.1829763,6.18202786 C18.9754861,6.54672351 19.6830925,7.07480227 20.2603834,7.73226767 C20.5515756,8.06453333 20.6019819,8.46879156 20.4943558,8.88438195 C20.4732871,8.96547357 20.4514576,9.03603294 20.4229139,9.11195843 L20.3552094,9.27274182 L20.3121788,9.3667321 L20.1256028,9.7474261 L20.0616688,9.88701168 L20.1165733,9.90600971 L20.2287306,9.94167269 L20.4018451,9.98866784 L20.5838898,10.0341298 L20.9850564,10.1395856 C21.0926824,10.1714823 21.1823487,10.2032457 21.2695344,10.2412751 C21.591751,10.383827 21.8288325,10.5886058 21.8980915,10.9708663 C22.0376349,11.7396869 22.0338974,12.5280054 21.8867137,13.2954928 C21.819803,13.6466232 21.604551,13.8437361 21.320073,13.9781223 C21.1920397,14.0380161 21.0566307,14.0812116 20.8661849,14.1297733 L20.3664549,14.2556936 L20.2234055,14.2973559 C20.0992751,14.3360186 20.0052098,14.3739147 19.9389275,14.4058114 L19.9253668,14.4125774 L19.950173,14.4573727 L20.2625663,14.960954 L20.3424093,15.1028727 C20.3649003,15.1468682 20.3853076,15.1877639 20.4032673,15.2301929 L20.4559889,15.3637791 C20.6064801,15.786902 20.5710898,16.2214904 20.2550583,16.5749873 C19.6756175,17.2239869 18.9681104,17.7439998 18.1778166,18.1016295 C17.6192792,18.3534368 17.1421394,18.157757 16.7492415,17.7255017 L16.6130718,17.5617186 L16.3496295,17.2234869 L16.2780552,17.1368959 C16.0808952,16.9048865 15.9492567,16.8259946 15.7903314,16.8259946 C15.6097089,16.8259946 15.4690079,16.9223514 15.2311656,17.2195873 L15.2063594,17.2530505 L14.9263796,17.6049475 L14.8510678,17.6944049 C14.4530103,18.131993 13.9704462,18.3284394 13.4059553,18.0690995 C12.6368295,17.7156027 11.9471828,17.2079885 11.3792191,16.577187 C11.0668258,16.2313894 11.0186355,15.8028004 11.155566,15.380444 C11.1947268,15.2597565 11.2338545,15.1672994 11.2963993,15.0489783 L11.3851726,14.8911612 L11.5681104,14.5848262 L11.6591989,14.4179101 L11.6169291,14.4020118 L11.4198021,14.3306858 L11.2391796,14.2753582 L10.5828395,14.0941103 C10.4704176,14.0607804 10.3607409,14.0187181 10.2546694,13.9682233 C9.96873611,13.8286377 9.75725462,13.6337578 9.69021161,13.2826275 C9.53320463,12.4521133 9.543954,11.5982682 9.72186438,10.7720536 C9.80997616,10.364829 10.0604861,10.1986795 10.4051937,10.0910239 C10.4579152,10.0759255 10.5106037,10.0606937 10.5700394,10.0477951 L10.7671995,10.009899 L11.2820448,9.92880736 L11.4469236,9.89844383 C11.5071201,9.88557849 11.5612638,9.87331309 11.6078996,9.86044775 L11.6509301,9.84988218 L11.6358149,9.82178508 L11.4551924,9.51465015 L11.3438289,9.31897037 C11.2747021,9.1957831 11.2174493,9.06626315 11.1728973,8.93214368 C11.0306418,8.50745423 11.0646098,8.08119828 11.3739271,7.73083448 C11.8907238,7.14496169 12.5117729,6.66181161 13.2050578,6.30638167 C13.7213254,6.04247561 14.2143742,6.14949789 14.6546685,6.4922958 C14.7449963,6.56208858 14.8292383,6.63784742 14.9316716,6.73720382 L15.2484638,7.04510534 C15.4802534,7.25745006 15.6278009,7.33180905 15.7903314,7.33180905 C15.9589477,7.33180905 16.1004095,7.24001853 16.3473143,6.95788102 L16.6130718,6.6499795 C16.6634781,6.59305205 16.70932,6.54462372 16.7575103,6.49829518 L16.7575103,6.49749526 Z M11.7359329,18.4832567 C12.1339904,18.4840233 12.4625574,18.7971576 12.4856768,19.1974829 C12.5087962,19.5979749 12.218497,19.9474054 11.8232839,19.9948005 L11.7359329,20 L4.65504037,20 C4.25698286,19.9992334 3.9284159,19.6861324 3.90529648,19.2856405 C3.88217706,18.8852819 4.17247625,18.5358513 4.5677224,18.4884562 L4.65504037,18.4832567 L11.7359329,18.4832567 Z" id="Fill-1"></path>
                </g>
            </g>
        </g>
    </g>
</svg>