<?xml version="1.0" encoding="UTF-8"?>
<svg width="40px" height="40px" viewBox="0 0 40 40" version="1.1" xmlns="http://www.w3.org/2000/svg" xmlns:xlink="http://www.w3.org/1999/xlink">
    <title>编组 18</title>
    <defs>
        <polygon id="path-1" points="0 0 22 0 22 21 0 21"></polygon>
    </defs>
    <g id="页面-1" stroke="none" stroke-width="1" fill="none" fill-rule="evenodd">
        <g id="00跨产品切换浮窗" transform="translate(-264.000000, -376.000000)">
            <g id="编组-18" transform="translate(264.000000, 376.000000)">
                <rect id="矩形" fill="#D8D8D8" opacity="0" x="0" y="0" width="40" height="40"></rect>
                <g id="编组" transform="translate(9.000000, 10.000000)">
                    <mask id="mask-2" fill="white">
                        <use xlink:href="#path-1"></use>
                    </mask>
                    <g id="Clip-2"></g>
                    <path d="M18.5850028,4.79493333 C18.5928084,4.87816741 18.5843361,4.96207704 18.5600305,5.04190519 L17.9287513,7.08132296 C17.8602789,7.30397481 17.6765563,7.47044296 17.4505558,7.51463556 C17.2245275,7.5588563 16.9928603,7.4736237 16.8474711,7.29277185 L16.488748,6.84437185 L12.8137119,9.66017185 C12.7081284,9.74098519 12.579767,9.78540296 12.4474889,9.78683852 L12.4275444,9.78816148 L12.4062666,9.78683852 C12.2664052,9.78892148 12.1301271,9.74242074 12.0199879,9.65510519 L9.70378824,7.82603852 L6.54122552,10.6190667 C6.28266938,10.8473481 5.89041849,10.8201852 5.66502909,10.5582667 L5.66375131,10.5569437 C5.43783413,10.2928578 5.4658342,9.89315407 5.72625145,9.66402815 L9.26128723,6.5403437 L9.2787595,6.52517185 L9.28875952,6.5176 L9.2812595,6.52263852 L9.29873176,6.51 L9.30750956,6.5024 L9.31881514,6.49482815 L9.34495409,6.4758 C9.37056526,6.45908 9.39725976,6.44424593 9.42503761,6.43149481 C9.43500985,6.42896148 9.44381543,6.42389481 9.45378767,6.42006667 C9.47525994,6.41136889 9.49739888,6.40421926 9.51998226,6.39850519 L9.55620457,6.38972296 C9.58953798,6.38189778 9.62337139,6.37773185 9.6574548,6.3769437 L9.69628822,6.3769437 C9.7212605,6.3769437 9.746205,6.3808 9.76878838,6.38333333 L9.79373288,6.3884 C9.89270533,6.40618963 9.98589999,6.44841185 10.0650113,6.51132296 L12.4250444,8.3719437 L15.6999963,5.86402815 L15.3700233,5.45103852 C15.2239674,5.2696237 15.1886062,5.02132889 15.2781342,4.8053763 C15.3676344,4.5895363 15.5674126,4.4413363 15.797552,4.42 L17.9049735,4.2224 C18.0701127,4.20691852 18.234502,4.25848593 18.3621134,4.36589926 C18.4896137,4.47334074 18.5698083,4.62759259 18.5850028,4.79493333 L18.5850028,4.79493333 Z M14.2500208,10.3733333 C14.5951882,10.3733333 14.8750222,10.6568978 14.8750222,11.0066667 L14.8750222,15.1030948 C14.8750222,15.4528637 14.5951882,15.7364281 14.2500208,15.7364281 C13.9048533,15.7364281 13.6250193,15.4528637 13.6250193,15.1030948 L13.6250193,11.0066667 C13.6250193,10.6568978 13.9048533,10.3733333 14.2500208,10.3733333 L14.2500208,10.3733333 Z M10.9375133,11.950277 C11.2826807,11.950277 11.5625147,12.2338696 11.5625147,12.5836104 L11.5625147,15.1043052 C11.5625147,15.4540741 11.2826807,15.7376385 10.9375133,15.7376385 C10.5923458,15.7376385 10.3125118,15.4540741 10.3125118,15.1043052 L10.3125118,12.5836104 C10.3125118,12.2338696 10.5923458,11.950277 10.9375133,11.950277 L10.9375133,11.950277 Z M7.62500575,13.2132281 C7.9701732,13.2132281 8.25000717,13.4967926 8.25000717,13.8465615 L8.25000717,15.1030948 C8.25000717,15.4528637 7.9701732,15.7364281 7.62500575,15.7364281 C7.2798383,15.7364281 7.00000434,15.4528637 7.00000434,15.1030948 L7.00000434,13.8465615 C7.00000434,13.4967926 7.2798383,13.2132281 7.62500575,13.2132281 L7.62500575,13.2132281 Z M14.6837162,1 C15.5400515,1 16.3412755,1.4369437 16.8349988,2.1742 C17.0663327,2.52472889 16.9733325,2.9987437 16.6275261,3.23316148 C16.2816087,3.46746667 15.8138299,3.37333926 15.582496,3.02281037 L15.5337737,2.94430519 C15.5282459,2.93574815 15.5232459,2.92682519 15.5188014,2.91770519 L15.2887731,2.49593333 L6.71744814,2.49593333 L4.61999895,6.51253333 L2.42502175,10.5101052 L4.5549988,14.5001052 L6.70497589,18.5040667 L15.2925509,18.5040667 L17.4925281,14.5216667 L19.575005,10.5025333 L18.6375029,8.70896148 C18.4007524,8.33819407 18.5053359,7.84306815 18.8712257,7.60316148 C19.2371154,7.36314222 19.7257276,7.46923259 19.9624781,7.84 L19.9637837,7.83867704 L20.6599797,9.1396563 C21.0725084,9.90843852 21.1112585,10.8369052 20.7675077,11.6425333 L20.6650631,11.8578104 L18.8562534,15.2651719 L16.9488046,18.644723 C16.5258592,19.4073407 15.759802,19.9102637 14.8999667,19.9898948 L14.6875217,20 L7.30750503,20 C6.44500308,20 5.63747347,19.5541333 5.14497236,18.8067719 L5.02994432,18.6155615 L3.18119013,15.248677 L1.3500471,11.8933333 C0.918379453,11.096403 0.884101598,10.1396756 1.25749133,9.31316148 L1.36749158,9.09402815 L3.23871804,5.76263852 L5.02624987,2.41236148 C5.44033414,1.61990667 6.22028035,1.09193185 7.10125457,1.0076 L7.32128284,1 L14.6837162,1 Z" id="Fill-1" fill="#1D78FF" mask="url(#mask-2)"></path>
                </g>
            </g>
        </g>
    </g>
</svg>