<?xml version="1.0" encoding="UTF-8"?>
<svg width="40px" height="40px" viewBox="0 0 40 40" version="1.1" xmlns="http://www.w3.org/2000/svg" xmlns:xlink="http://www.w3.org/1999/xlink">
    <title>编组 18</title>
    <g id="页面-1" stroke="none" stroke-width="1" fill="none" fill-rule="evenodd">
        <g id="00跨产品切换浮窗" transform="translate(-144.000000, -136.000000)">
            <g id="编组-18" transform="translate(144.000000, 136.000000)">
                <rect id="矩形" fill="#D8D8D8" opacity="0" x="0" y="0" width="40" height="40"></rect>
                <g id="编组" transform="translate(9.000000, 9.999996)" fill="#1D78FF">
                    <path d="M2.44391235,1.38284816 C2.06977438,1.38284816 1.72403869,1.57984795 1.53703515,1.89982318 C1.34990072,2.21963686 1.34990072,2.61392725 1.53703515,2.93377324 C1.72403869,3.25371616 2.06977438,3.45074826 2.44391235,3.45074826 C3.0221345,3.45061902 3.49087041,2.98776482 3.49087041,2.41679821 C3.49087041,1.84579929 3.0221345,1.38294509 2.44391235,1.38284816 L2.44391235,1.38284816 Z M8.90589091,5.91633141 C8.54991339,6.65279464 7.71986635,7.04178604 6.91704362,6.84830814 C6.11431905,6.65483023 5.55896925,5.93200221 5.58668439,5.11650642 C5.61430136,4.30104294 6.21735915,3.61643876 7.03143809,3.47646777 C7.84551702,3.33649678 8.64742355,3.77951207 8.9526827,4.5378175 L10.2893899,4.5378175 C9.92205802,3.75466496 9.14747397,3.23516968 8.27485621,3.18670327 L8.14357744,3.18327831 L4.76072753,3.18327831 C4.37818013,4.30230307 3.23178134,4.98374077 2.05125399,4.79365552 C0.870693922,4.60357026 0.0028207909,3.59789228 3.36406941e-06,2.41679821 C-0.00202199549,1.20210076 0.910712353,0.17532374 2.13073459,0.0199727446 C3.35075682,-0.135281318 4.49754827,0.629195502 4.80751932,1.80463516 L8.14357744,1.80463516 C9.83793096,1.80502289 11.323063,2.92353067 11.7713153,4.53707435 L18.2165731,4.53707435 C18.5883879,4.53416636 18.8972137,4.81953658 18.9189408,5.18594263 C18.9406679,5.55244561 18.6677703,5.87151614 18.2982461,5.91154939 L18.2165731,5.9157175 L12.0548146,5.91633141 C12.3968527,6.75867759 13.2019987,7.32932109 14.1196086,7.37979078 L14.2508873,7.38321574 L18.2165731,7.38321574 C18.5883879,7.38030775 18.8972137,7.66567797 18.9189408,8.03208402 C18.9406679,8.398587 18.6677703,8.71765752 18.2982461,8.75769078 L18.2165731,8.76185889 L14.2508873,8.76185889 C12.5121634,8.76195582 10.9999379,7.58551453 10.5930784,5.91633141 L8.90589091,5.91633141 Z M7.33028382,9.65444826 C7.97126586,9.65406085 8.56090783,10.0007572 8.86600337,10.5573778 L18.2165731,10.5573778 C18.5883879,10.5544698 18.8972137,10.83984 18.9189408,11.2063753 C18.9406679,11.5727813 18.6677703,11.8918519 18.2982461,11.9318528 L18.2165731,11.9360209 L8.98131404,11.9360209 C8.69320097,12.7678984 7.81750739,13.2525625 6.94858717,13.0608293 C6.07969967,12.8691285 5.49607847,12.0626152 5.59398129,11.1888305 C5.6918841,10.3149165 6.43999644,9.65393161 7.33028382,9.65444826 L7.33028382,9.65444826 Z M2.44391235,15.1688919 C2.06977438,15.1687627 1.72403869,15.3658917 1.53703515,15.6857377 C1.34990072,16.0056806 1.34990072,16.3998418 1.53703515,16.719817 C1.72403869,17.0397599 2.06977438,17.2367921 2.44391235,17.2367921 C3.0221345,17.2366628 3.49087041,16.7738086 3.49087041,16.202842 C3.49087041,15.6318431 3.0221345,15.1688919 2.44391235,15.1688919 L2.44391235,15.1688919 Z M18.2165731,13.5765442 C18.5859665,13.576932 18.891062,13.8614298 18.9126582,14.2254125 C18.9342544,14.5895568 18.6649563,14.907238 18.2982461,14.9502761 L18.2165731,14.9551874 L12.8135614,14.9551874 L7.89790419,16.9354925 C7.84191765,16.9581102 7.78324795,16.973361 7.72330211,16.981051 L7.63397233,16.9864792 L4.75523032,16.9864792 C4.36640038,18.1007219 3.21937988,18.7746958 2.04215741,18.5805717 C0.864967655,18.3865768 0.0019373096,17.3812866 0.000659554038,16.202842 C-0.000745855833,14.9851073 0.916864001,13.9573287 2.14045288,13.8060165 C3.3639436,13.6548013 4.50981885,14.4274851 4.81236211,15.6079653 L7.49644374,15.6079653 L12.4121991,13.6275309 C12.4681857,13.6049456 12.5268554,13.5896948 12.5866703,13.5821017 L12.6760328,13.5765442 L18.2165731,13.5765442 Z M17.4627018,0.388899048 C20.1257762,0.388899048 22,4.59639723 22,9.69444952 C22,14.7925018 20.1257762,19 17.4627018,19 C16.2605783,19 15.2128349,18.1466681 14.4232971,16.7018845 C14.3048124,16.485175 14.3124693,16.2225194 14.4432245,16.012886 C14.5741106,15.8030911 14.8082986,15.6784031 15.0575385,15.68535 C15.3069093,15.6924261 15.5334077,15.8302322 15.6518924,16.0469417 C16.2228503,17.092653 16.8727981,17.6213568 17.4627018,17.6213568 C19.0409921,17.6213568 20.6039687,14.1134551 20.6039687,9.69444952 C20.6039687,5.27605784 19.0409921,1.76741296 17.4627018,1.76741296 C16.8902059,1.76741296 16.2619526,2.26445213 15.7014982,3.25358691 C15.5110262,3.58138139 15.088853,3.6966022 14.7549952,3.51194518 C14.4211375,3.32741741 14.2999696,2.9118018 14.4833738,2.5800977 C15.2651239,1.20019442 16.2913692,0.388899048 17.4627018,0.388899048 L17.4627018,0.388899048 Z" id="Fill-1"></path>
                </g>
            </g>
        </g>
    </g>
</svg>