<?xml version="1.0" encoding="UTF-8"?>
<svg width="40px" height="40px" viewBox="0 0 40 40" version="1.1" xmlns="http://www.w3.org/2000/svg" xmlns:xlink="http://www.w3.org/1999/xlink">
    <title>编组 18</title>
    <defs>
        <polygon id="path-1" points="-2.60633898e-16 0 20 0 20 23 -2.60633898e-16 23"></polygon>
    </defs>
    <g id="页面-1" stroke="none" stroke-width="1" fill="none" fill-rule="evenodd">
        <g id="00跨产品切换浮窗" transform="translate(-144.000000, -376.000000)">
            <g id="编组-18" transform="translate(144.000000, 376.000000)">
                <rect id="矩形" fill="#D8D8D8" opacity="0" x="0" y="0" width="40" height="40"></rect>
                <g id="编组" transform="translate(10.000000, 8.000000)">
                    <mask id="mask-2" fill="white">
                        <use xlink:href="#path-1"></use>
                    </mask>
                    <g id="Clip-2"></g>
                    <path d="M12.5057171,7.64749196 C12.1596104,7.44418539 11.7332825,7.55388246 11.5490048,7.87777872 C11.364727,8.20154092 11.4849268,8.63188322 11.8302412,8.83441894 C12.176513,9.03775903 12.6036002,8.92802844 12.7869866,8.60413218 C12.9713964,8.28036998 12.8511966,7.85002767 12.5057171,7.64749196 L12.5057171,7.64749196 Z M13.2252982,6.38254031 C14.2510404,6.9845168 14.6195958,8.30406562 14.0330896,9.33387073 C13.4473756,10.3646143 12.1371617,10.7005762 11.1114525,10.0993706 C10.085083,9.4973941 9.71718783,8.17784528 10.3030338,7.14804017 C10.8887478,6.11729662 12.1989287,5.78133468 13.2252982,6.38254031 L13.2252982,6.38254031 Z M16.6124824,13.7252391 L13.6420854,19.4149408 L15.9337713,19.4427431 C16.3504265,19.4475182 16.7046873,19.1106513 16.7670816,18.6544013 L16.7759951,18.4989887 L16.6132417,13.7252391 L16.6124824,13.7252391 Z M5.56090322,13.6358191 L10.3246903,16.5725031 C10.6421748,16.769006 10.7600637,17.1788031 10.596419,17.517882 C10.4327413,17.8569609 10.0415061,18.0135465 9.6939798,17.8790813 L9.57777457,17.8204288 L4.81398753,14.8837447 C4.49973822,14.6859347 4.38432531,14.2786513 4.54691358,13.9415163 C4.70953488,13.6043813 5.09730379,13.4471589 5.44380665,13.5780714 L5.56090322,13.6358191 Z M15.4410545,2.48331728 L9.44559112,3.57834406 C9.1911611,3.62952261 8.96393367,3.77367388 8.80699058,3.98341548 L8.71557801,4.12086359 L2.59285007,14.8868952 C2.33003479,15.3506192 2.41567011,15.8892174 2.74269539,16.1641471 L2.84843554,16.2390549 L10.0041025,20.4327138 C10.3783361,20.6523761 10.8911907,20.5205586 11.1981112,20.113007 L11.2846379,19.9819604 L16.6453632,10.5525036 L17.4066065,9.21512441 C17.5444352,8.97347581 17.5908842,8.69774168 17.5444352,8.44885368 L17.5043576,8.30235631 L15.4410545,2.48331728 Z M15.3303955,1.02146056 C15.8707168,0.919740246 16.413382,1.18629105 16.6701229,1.67960946 L16.7438736,1.85043927 L18.8585116,7.80695993 C19.0750429,8.43303425 19.04203,9.12020779 18.7664388,9.72194966 L18.6534688,9.94566733 L17.9747906,11.1366832 L18.034874,13.1696149 L18.2134735,18.4631269 C18.2294518,19.7378987 17.3192875,20.7954883 16.1285141,20.8954993 L15.9153501,20.9037442 L12.4393283,20.8605424 C11.7718415,21.8750643 10.5105196,22.2826159 9.46648826,21.7937551 L9.28452144,21.6976654 L2.12885449,17.5040065 C1.06395904,16.8792393 0.710589505,15.4979209 1.24899605,14.3468558 L1.34674709,14.1572907 L7.46960708,3.39035418 C7.79455255,2.81230794 8.32714883,2.38447932 8.95594456,2.19608726 L9.19076495,2.14081978 L15.3303955,1.02146056 Z" id="Fill-1" fill="#1D78FF" mask="url(#mask-2)"></path>
                </g>
            </g>
        </g>
    </g>
</svg>